<svg width="26" height="25" viewBox="0 0 26 25" fill="none" xmlns="http://www.w3.org/2000/svg">
<path d="M24.4019 12.4506C24.4019 14.6451 23.8103 16.7013 22.7781 18.4691C22.7781 18.4691 24.5985 23.8433 24.5985 23.7292L19.2927 22.2506C17.3544 23.6062 14.9951 24.4019 12.4506 24.4019C5.85014 24.4019 0.5 19.0511 0.5 12.4513C0.5 5.85141 5.85077 0.5 12.4513 0.5C19.0518 0.5 24.4019 5.85077 24.4019 12.4506Z" stroke="#766A66" stroke-linecap="round" stroke-linejoin="round"/>
<path d="M12.565 20.0362C16.7548 20.0362 20.1514 16.6396 20.1514 12.4497C20.1514 8.25985 16.7548 4.86328 12.565 4.86328C8.37508 4.86328 4.97852 8.25985 4.97852 12.4497C4.97852 16.6396 8.37508 20.0362 12.565 20.0362Z" stroke="#766A66" stroke-linecap="round" stroke-linejoin="round"/>
<path d="M12.5334 20.0362C14.1187 20.0362 15.4038 16.6396 15.4038 12.4497C15.4038 8.25985 14.1187 4.86328 12.5334 4.86328C10.9482 4.86328 9.66309 8.25985 9.66309 12.4497C9.66309 16.6396 10.9482 20.0362 12.5334 20.0362Z" stroke="#766A66" stroke-linecap="round" stroke-linejoin="round"/>
<path d="M12.5337 15.1821C16.7236 15.1821 20.1202 13.897 20.1202 12.3118C20.1202 10.7265 16.7236 9.44141 12.5337 9.44141C8.34383 9.44141 4.94727 10.7265 4.94727 12.3118C4.94727 13.897 8.34383 15.1821 12.5337 15.1821Z" stroke="#766A66" stroke-linecap="round" stroke-linejoin="round"/>
</svg>
