<svg width="31" height="28" viewBox="0 0 31 28" fill="none" xmlns="http://www.w3.org/2000/svg">
<path d="M16 9.5C18.4853 9.5 20.5 7.48528 20.5 5C20.5 2.51472 18.4853 0.5 16 0.5C13.5147 0.5 11.5 2.51472 11.5 5C11.5 7.48528 13.5147 9.5 16 9.5Z" stroke="#25211E" stroke-linecap="round" stroke-linejoin="round"/>
<path d="M9.5 25.5L11.1079 16.1709C11.4668 14.087 13.1847 12.5357 15.2194 12.5015C15.2694 12.5007 15.3209 12.5 15.3724 12.5C15.6798 12.5 15.9679 12.5156 16.2367 12.5432C18.152 12.7411 19.6955 14.2655 20.013 16.2416L21.5 25.5" stroke="#25211E" stroke-linecap="round" stroke-linejoin="round"/>
<path d="M5.5 12.5C7.15685 12.5 8.5 11.1569 8.5 9.5C8.5 7.84315 7.15685 6.5 5.5 6.5C3.84315 6.5 2.5 7.84315 2.5 9.5C2.5 11.1569 3.84315 12.5 5.5 12.5Z" stroke="#25211E" stroke-linecap="round" stroke-linejoin="round"/>
<path d="M25.5 12.5C27.1569 12.5 28.5 11.1569 28.5 9.5C28.5 7.84315 27.1569 6.5 25.5 6.5C23.8431 6.5 22.5 7.84315 22.5 9.5C22.5 11.1569 23.8431 12.5 25.5 12.5Z" stroke="#25211E" stroke-linecap="round" stroke-linejoin="round"/>
<path d="M21.5 25.5L22.2179 18.3234C22.5039 16.7203 23.8727 15.5274 25.4943 15.5007C25.5342 15.5007 25.5754 15.5 25.6167 15.5C25.8622 15.5 26.0914 15.5118 26.3052 15.5333C27.8317 15.6859 29.0612 16.858 29.3147 18.3782L30.5 25.5" stroke="#25211E" stroke-linecap="round" stroke-linejoin="round"/>
<path d="M0.5 25.5L1.21794 18.3234C1.50393 16.7203 2.87273 15.5274 4.49435 15.5007C4.53415 15.5007 4.57543 15.5 4.61671 15.5C4.86216 15.5 5.0914 15.5118 5.30516 15.5333C6.83169 15.6859 8.06118 16.858 8.31474 18.3782L9.5 25.5" stroke="#25211E" stroke-linecap="round" stroke-linejoin="round"/>
</svg>
